<svg width="268" height="50" viewBox="0 0 268 50" fill="none" xmlns="http://www.w3.org/2000/svg">
<g clip-path="url(#clip0_15_106)">
<path d="M73.791 42.7409C73.089 46.6289 70.335 48.5999 65.502 48.5999H50.652C50.0484 48.5858 49.4536 48.4521 48.9021 48.2064C48.3505 47.9608 47.8532 47.6082 47.439 47.1689C46.964 46.7601 46.5811 46.255 46.3158 45.6872C46.0505 45.1193 45.9088 44.5016 45.9 43.8749C45.8881 43.4923 45.9336 43.1101 46.035 42.7409C46.575 40.9319 47.385 38.3129 48.438 34.8569L36.099 45.2249C33.907 47.382 31.0549 48.7415 27.999 49.0859C24.705 49.0859 23.031 47.8439 23.031 45.3599C23.041 44.4314 23.2336 43.514 23.598 42.6599L26.514 34.7759L11.961 46.9259C10.7069 48.0057 9.10694 48.5997 7.452 48.5999H0L8.748 23.7599H21.924L17.793 35.4239L29.025 26.2169C31.6456 23.9617 34.9906 22.7253 38.448 22.7339C41.337 22.7339 42.768 23.8409 42.768 26.0549C42.7541 26.7661 42.6171 27.4695 42.363 28.1339L39.663 35.4239L50.463 26.1359C52.9271 23.9495 56.1057 22.7395 59.4 22.7339C62.478 22.7339 63.99 24.0299 63.99 26.6489C64.015 27.6848 63.8597 28.7172 63.531 29.6999L58.806 42.8759L73.791 42.7409Z" fill="white"/>
<path d="M120.96 42.7407C119.772 46.6287 116.802 48.5997 111.996 48.5997H98.1449C94.2029 48.5997 92.232 47.3307 92.232 44.7927C91.0375 46.229 89.5382 47.3812 87.8429 48.1658C86.1476 48.9504 84.2989 49.3476 82.431 49.3287C81.1514 49.3752 79.8758 49.1597 78.6826 48.6954C77.4893 48.2311 76.4036 47.5278 75.492 46.6287C74.5917 45.7291 73.8872 44.6531 73.4226 43.4683C72.9579 42.2835 72.7432 41.0155 72.792 39.7437C72.7093 37.4133 73.1974 35.0979 74.2139 32.9991C75.2303 30.9004 76.7443 29.0818 78.624 27.7017C82.4448 24.935 87.0866 23.5367 91.8 23.7327H112.671L105.813 42.6327L120.96 42.7407ZM97.362 29.6997H89.262L86.562 38.2317C86.43 38.7069 86.3574 39.1967 86.346 39.6897C86.346 41.7957 88.4249 42.8757 92.5559 42.8757L97.362 29.6997Z" fill="white"/>
<path d="M158.463 23.7332L144.018 34.2902L153.522 48.6002H138.672L133.974 41.6612L124.389 48.6002H112.941L130.086 35.9642L121.797 23.7332H137.025L140.184 28.4312L146.529 23.7332H158.463Z" fill="white"/>
<path d="M235.251 42.7407C234.935 43.7909 234.395 44.7598 233.668 45.5804C232.941 46.401 232.044 47.0535 231.039 47.4927C229.494 48.2183 227.805 48.5874 226.098 48.5727H211.518C208.197 48.5727 206.523 47.4927 206.523 45.2787C206.547 44.4095 206.72 43.5509 207.036 42.7407L209.736 34.8567L197.154 45.4947C195.106 47.1945 192.613 48.272 189.972 48.5997H183.222L191.97 23.7597H205.2L201.069 35.4507L212.22 26.2977C214.941 23.9364 218.446 22.6752 222.048 22.7607C222.547 22.7235 223.048 22.7986 223.514 22.9804C223.98 23.1622 224.399 23.4462 224.741 23.8114C225.083 24.1765 225.339 24.6137 225.489 25.0907C225.64 25.5677 225.682 26.0724 225.612 26.5677C225.591 27.6377 225.39 28.6965 225.018 29.6997L220.293 42.8757L235.251 42.7407Z" fill="white"/>
<path d="M267.3 42.7413C266.166 46.6293 263.115 48.6003 258.174 48.6003H239.517C235.926 48.6003 234.117 47.3313 234.117 44.7933C234.131 44.0996 234.268 43.414 234.522 42.7683L239.166 29.7003H233.172L235.467 23.8683C238.894 23.1434 242.132 21.7085 244.971 19.6563C248.107 16.6293 250.644 13.0387 252.45 9.07227H259.578L254.421 23.7333H263.871C263.218 25.6098 261.958 27.2153 260.291 28.2959C258.623 29.3765 256.643 29.8707 254.664 29.7003H252.234L247.671 42.8763L267.3 42.7413Z" fill="white"/>
<path d="M165.996 14.9578C167.861 16.6343 170.292 17.5413 172.8 17.4958C175.318 17.5564 177.763 16.6479 179.631 14.9578C180.502 14.1788 181.195 13.2204 181.661 12.1485C182.127 11.0765 182.356 9.9164 182.331 8.74778C182.352 7.58367 182.121 6.42877 181.655 5.36178C181.189 4.29479 180.499 3.34078 179.631 2.56478C177.729 0.910421 175.294 -0.000732422 172.773 -0.000732422C170.252 -0.000732422 167.817 0.910421 165.915 2.56478C165.047 3.34078 164.356 4.29479 163.891 5.36178C163.425 6.42877 163.194 7.58367 163.215 8.74778C163.2 9.92264 163.441 11.0866 163.922 12.159C164.402 13.2313 165.11 14.1863 165.996 14.9578V14.9578ZM176.229 3.42878C176.517 3.17032 176.895 3.03468 177.282 3.05078C177.678 3.03043 178.065 3.16616 178.362 3.42878C178.501 3.54869 178.613 3.69809 178.687 3.86619C178.762 4.03429 178.798 4.21688 178.794 4.40078C178.798 4.58467 178.762 4.76727 178.687 4.93536C178.613 5.10346 178.501 5.25286 178.362 5.37278C178.059 5.6238 177.676 5.7579 177.282 5.75078C176.901 5.76142 176.528 5.63712 176.229 5.39978C176.087 5.28066 175.973 5.13192 175.895 4.964C175.816 4.79608 175.776 4.61305 175.776 4.42778C175.776 4.2425 175.816 4.05947 175.895 3.89155C175.973 3.72363 176.087 3.57489 176.229 3.45578V3.42878ZM166.239 6.69578L169.938 5.80478C170.451 5.80478 170.748 5.80478 170.829 6.18278C170.858 6.36159 170.858 6.54396 170.829 6.72278L170.478 10.4218L172.179 7.15478C172.341 6.86448 172.521 6.58491 172.719 6.31778C173.005 6.06761 173.348 5.89146 173.718 5.80478C173.85 5.76794 173.99 5.76794 174.123 5.80478C174.235 5.84275 174.334 5.91062 174.41 6.00104C174.487 6.09146 174.537 6.201 174.555 6.31778C174.597 6.50446 174.597 6.69809 174.555 6.88478L174.204 9.98978L175.824 7.28978C175.954 7.04153 176.108 6.80643 176.283 6.58778C176.486 6.4218 176.727 6.31028 176.985 6.26378C177.135 6.22369 177.294 6.22369 177.444 6.26378C177.562 6.31592 177.667 6.39393 177.751 6.49206C177.835 6.59019 177.896 6.70593 177.93 6.83078C177.957 7.00976 177.957 7.19179 177.93 7.37078L177.471 11.1778L179.955 10.7998C179.955 11.4208 179.496 11.8258 178.632 12.0418L176.661 12.5278C176.04 12.6898 175.689 12.5278 175.581 12.2308C175.553 12.0518 175.553 11.8697 175.581 11.6908L175.932 8.99078L173.907 12.6628C173.838 12.8557 173.728 13.031 173.583 13.1758C173.438 13.3206 173.263 13.4313 173.07 13.4998H172.8C172.716 13.5238 172.629 13.5301 172.543 13.5182C172.457 13.5063 172.374 13.4765 172.3 13.4307C172.227 13.3849 172.163 13.3241 172.114 13.2523C172.066 13.1805 172.032 13.0992 172.017 13.0138C171.99 12.8529 171.99 12.6886 172.017 12.5278L172.503 8.69378L170.1 13.4998C170.014 13.6741 169.889 13.826 169.735 13.9432C169.58 14.0604 169.4 14.1397 169.209 14.1748L168.075 14.4448L168.75 7.53278L165.699 8.26178L166.239 6.69578Z" fill="white"/>
<path d="M170.262 42.7413L177.012 23.8413H163.755L157.383 41.6343C157.064 42.4996 156.89 43.4121 156.87 44.3343C156.87 47.2503 158.625 48.7083 162.108 48.7083H176.553C178.174 48.7264 179.776 48.3561 181.224 47.6283C182.18 47.1596 183.025 46.4938 183.704 45.6747C184.384 44.8557 184.882 43.9019 185.166 42.8763L170.262 42.7413Z" fill="white"/>
</g>
<defs>
<clipPath id="clip0_15_106">
<rect width="267.3" height="49.302" fill="white"/>
</clipPath>
</defs>
</svg>
